# File created by Blade
# Date/Time:  Thu Jan 22 15:49:58 2015
# Frame Rate: 120.000 fps
#------------------------------------------------------
:FULLY-SPECIFIED
:DEGREES
686
root 3.165994 37.149966 5.115510 -2.402412 0.658084 2.980554
RightUpLeg 11.797288 -7.727968 -5.827403
RightLeg -5.802755 -0.000000 0.000000
RightFoot -11.776955 -14.811471 17.070276
RightToeBase 13.578559 -0.000000 -0.000000
LeftUpLeg 8.973928 3.779761 1.390791
LeftLeg -2.825068 -0.000000 0.000000
LeftFoot -6.010853 6.196999 -17.078024
LeftToeBase 8.580278 -0.000000 -0.000000
Spine 0.280234 -5.465328 -2.910327
RightShoulder -5.932472 2.485488 -41.318572
RightArm 6.175856 61.300195 20.484112
RightForeArm 32.273729 -0.000000 102.191170
RightHand 14.516447 -0.000000 -15.364411
RightHandThumb1 -24.326973 -0.000000 -32.862282
LeftShoulder -25.195564 17.142674 30.714170
LeftArm 127.592988 -63.254313 -119.453728
LeftForeArm -10.309137 0.000000 113.308976
LeftHand -19.998314 0.000000 21.772530
LeftHandThumb1 -26.253704 0.000000 33.147579
Head 25.956900 7.993095 4.416355
687
root 3.164798 37.152411 5.111664 -2.384067 0.685621 2.982096
RightUpLeg 11.788864 -7.736588 -5.826369
RightLeg -5.821194 -0.000000 0.000000
RightFoot -11.745680 -14.819585 17.088458
RightToeBase 13.515833 -0.000000 -0.000000
LeftUpLeg 8.954319 3.745871 1.382355
LeftLeg -2.840142 -0.000000 0.000000
LeftFoot -5.997099 6.225267 -17.145500
LeftToeBase 8.588774 -0.000000 -0.000000
Spine 0.269640 -5.527927 -2.872559
RightShoulder -6.029378 1.975552 -40.965094
RightArm 5.655187 60.445682 20.309165
RightForeArm 30.222361 -0.000000 100.972545
RightHand 14.262967 -0.000000 -15.830668
RightHandThumb1 -24.326973 -0.000000 -32.862282
LeftShoulder -25.153547 17.550597 30.227488
LeftArm 125.659898 -64.258861 -118.507538
LeftForeArm -9.528482 -0.000000 111.648784
LeftHand -20.032998 -0.000000 21.003343
LeftHandThumb1 -26.253704 0.000000 33.147579
Head 25.764944 8.134331 4.418158
688
root 3.162587 37.154873 5.108121 -2.374141 0.705413 2.973335
RightUpLeg 11.781300 -7.726496 -5.806932
RightLeg -5.834290 -0.000000 0.000000
RightFoot -11.719573 -14.863292 17.090949
RightToeBase 13.506581 -0.000000 -0.000000
LeftUpLeg 8.942117 3.711644 1.388684
LeftLeg -2.854982 -0.000000 0.000000
LeftFoot -5.970450 6.256547 -17.146571
LeftToeBase 8.572278 -0.000000 -0.000000
Spine 0.283670 -5.578228 -2.840476
RightShoulder -6.079362 1.509259 -40.599662
RightArm 4.941321 59.563541 19.961755
RightForeArm 28.512593 -0.000000 99.737600
RightHand 14.128785 -0.000000 -16.145244
RightHandThumb1 -24.326973 -0.000000 -32.862282
LeftShoulder -25.239548 18.025805 29.716546
LeftArm 123.407778 -65.129977 -117.163495
LeftForeArm -8.945869 0.000000 109.981004
LeftHand -20.288098 0.000000 20.400559
LeftHandThumb1 -26.253704 0.000000 33.147579
Head 25.545172 8.234019 4.414563
689
root 3.159830 37.156143 5.104115 -2.368414 0.716291 2.964717
RightUpLeg 11.778792 -7.701281 -5.787652
RightLeg -5.851193 -0.000000 0.000000
RightFoot -11.702828 -14.899991 17.111601
RightToeBase 13.485635 -0.000000 -0.000000
LeftUpLeg 8.931228 3.678115 1.401564
LeftLeg -2.865516 -0.000000 0.000000
LeftFoot -5.945625 6.258130 -17.112471
LeftToeBase 8.552442 -0.000000 -0.000000
Spine 0.308071 -5.618725 -2.807786
RightShoulder -6.151454 1.017973 -40.253972
RightArm 4.341901 58.667917 19.728120
RightForeArm 26.830629 0.000000 98.451648
RightHand 13.948662 -0.000000 -16.279003
RightHandThumb1 -24.326973 -0.000000 -32.862282
LeftShoulder -25.299926 18.384390 29.286478
LeftArm 120.664342 -66.014150 -115.367985
LeftForeArm -8.283269 -0.000000 108.352475
LeftHand -20.453843 -0.000000 20.217416
LeftHandThumb1 -26.253704 0.000000 33.147579
Head 25.309141 8.346471 4.388762
690
root 3.157968 37.156227 5.100029 -2.377515 0.727829 2.969823
RightUpLeg 11.782221 -7.715278 -5.788367
RightLeg -5.849656 -0.000000 0.000000
RightFoot -11.710333 -14.926401 17.099770
RightToeBase 13.478981 -0.000000 -0.000000
LeftUpLeg 8.929580 3.643181 1.396601
LeftLeg -2.859723 -0.000000 0.000000
LeftFoot -5.947999 6.272840 -17.121541
LeftToeBase 8.611044 -0.000000 -0.000000
Spine 0.354488 -5.680375 -2.796820
RightShoulder -6.181996 0.545046 -39.907966
RightArm 3.759833 57.770881 19.503368
RightForeArm 25.199871 0.000000 97.122091
RightHand 13.637942 -0.000000 -16.430610
RightHandThumb1 -24.326973 -0.000000 -32.862282
LeftShoulder -25.347522 18.711047 28.894140
LeftArm 117.576921 -66.900325 -113.225724
LeftForeArm -7.607625 -0.000000 106.701722
LeftHand -20.634461 -0.000000 19.910665
LeftHandThumb1 -26.253704 0.000000 33.147579
Head 25.068074 8.508609 4.392595
691
root 3.154470 37.157273 5.095283 -2.379230 0.725048 2.951274
RightUpLeg 11.806194 -7.618008 -5.754364
RightLeg -5.911637 -0.000000 0.000000
RightFoot -11.663655 -14.998165 17.099391
RightToeBase 13.418615 -0.000000 -0.000000
LeftUpLeg 8.919048 3.613763 1.416925
LeftLeg -2.850962 -0.000000 0.000000
LeftFoot -5.951586 6.293172 -17.120093
LeftToeBase 8.559762 -0.000000 -0.000000
Spine 0.383317 -5.721561 -2.739008
RightShoulder -6.248706 0.057818 -39.593033
RightArm 3.371341 56.870440 19.460576
RightForeArm 23.593939 -0.000000 95.740533
RightHand 13.447345 -0.000000 -16.519490
RightHandThumb1 -24.326973 -0.000000 -32.862282
LeftShoulder -25.439130 19.681262 28.139921
LeftArm 116.016373 -67.577153 -112.411650
LeftForeArm -6.972562 -0.000000 105.050827
LeftHand -20.910950 -0.000000 19.456747
LeftHandThumb1 -26.253704 0.000000 33.147579
Head 24.814095 8.709334 4.352388
